#!OML:ASF E:\motion texture\Top Level 1\Subject 1\Session 1\male.ASF
:FULLY-SPECIFIED
:DEGREES
194
root 3.95673 17.7955 6.07787 428.165 -81.4943 -423.885
lowerback -1.11689 -2.4816 5.6414
upperback -1.8657 -3.42219 5.05622
thorax -1.31268 -1.80993 2.05734
lowerneck -11.2588 -3.7713 -7.64255
upperneck 26.2023 -3.12527 -4.82384
head 10.3336 -3.01947 -0.851643
rclavicle -2.66868e-014 5.1684e-014
rhumerus -21.9061 -24.3845 -64.9469
rradius 72.9459
rwrist -24.3756
rhand -16.7657 -47.5261
rfingers 7.12502
rthumb 9.46145 -77.2937
lclavicle -2.66868e-014 5.1684e-014
lhumerus -20.1817 -0.10933 95.4674
lradius 80.9961
lwrist 43.681
lhand -13.1086 50.3943
lfingers 7.12502
lthumb 12.9885 79.97
rfemur -21.6227 1.39461 29.4388
rtibia 22.8199
rfoot -2.58671 -13.4654
rtoes 17.4596
lfemur -7.24443 -2.73027 -7.62222
ltibia 54.1997
lfoot 14.4187 -3.41363
ltoes -6.6289
195
root 3.80295 17.8141 6.04939 429.075 -81.2708 -424.888
lowerback -1.001 -2.35542 5.87109
upperback -1.7885 -3.25086 5.08817
thorax -1.30817 -1.72701 1.9661
lowerneck -11.1978 -3.88545 -7.70767
upperneck 26.0281 -3.31816 -4.64406
head 10.2643 -3.08062 -0.793733
rclavicle 4.31238e-014 6.36111e-015
rhumerus -22.4053 -24.2751 -65.159
rradius 73.0626
rwrist -24.4105
rhand -16.754 -47.4397
rfingers 7.12502
rthumb 9.4727 -77.2068
lclavicle 4.31238e-014 6.36111e-015
lhumerus -20.6317 0.152328 95.5448
lradius 80.6463
lwrist 43.7267
lhand -13.092 50.677
lfingers 7.12502
lthumb 13.0045 80.2517
rfemur -20.7388 1.488 29.9318
rtibia 22.4631
rfoot -3.0142 -13.4699
rtoes 17.3963
lfemur -8.50161 -2.29754 -7.17756
ltibia 55.9798
lfoot 13.7143 -3.146
ltoes -7.74985
196
root 3.64991 17.8335 6.02114 429.82 -81.1261 -425.7
lowerback -0.918772 -2.22928 6.01411
upperback -1.71294 -3.08102 5.09679
thorax -1.2819 -1.64288 1.89651
lowerneck -11.1367 -4.00193 -7.77966
upperneck 25.8534 -3.51377 -4.45933
head 10.1959 -3.14348 -0.733481
rclavicle 3.84524e-014 -1.36764e-013
rhumerus -22.8881 -24.1339 -65.4087
rradius 73.2897
rwrist -24.5195
rhand -16.838 -47.3642
rfingers 7.12502
rthumb 9.39161 -77.1349
lclavicle 3.84524e-014 -1.36764e-013
lhumerus -21.0851 0.364084 95.575
lradius 80.4193
lwrist 43.4866
lhand -13.0813 50.7534
lfingers 7.12502
lthumb 13.0148 80.3274
rfemur -19.8704 1.58351 30.3233
rtibia 22.0783
rfoot -3.43541 -13.4791
rtoes 17.3958
lfemur -9.7783 -1.84963 -6.84236
ltibia 57.6409
lfoot 12.6191 -2.80785
ltoes -9.39589
197
root 3.49745 17.8539 5.99265 430.481 -81.0528 -426.39
lowerback -0.870082 -2.09964 6.07841
upperback -1.64687 -2.90773 5.08218
thorax -1.24297 -1.55547 1.84478
lowerneck -11.0737 -4.12292 -7.85791
upperneck 25.6913 -3.71692 -4.26506
head 10.1329 -3.21033 -0.670284
rclavicle -2.06488e-014 2.46493e-014
rhumerus -23.348 -23.9809 -65.6983
rradius 73.5864
rwrist -24.6822
rhand -17.0708 -47.3379
rfingers 7.12502
rthumb 9.16706 -77.1186
lclavicle -2.06488e-014 2.46493e-014
lhumerus -21.5386 0.534386 95.5548
lradius 80.2973
lwrist 43.0568
lhand -13.0324 50.738
lfingers 7.12502
lthumb 13.062 80.309
rfemur -19.0212 1.69057 30.6278
rtibia 21.6534
rfoot -3.84392 -13.4923
rtoes 17.459
lfemur -11.0791 -1.3789 -6.59946
ltibia 59.1619
lfoot 11.3628 -2.4322
ltoes -11.0054
198
root 3.34507 17.8755 5.96395 431.027 -81.0315 -426.928
lowerback -0.860869 -1.9709 6.0798
upperback -1.60195 -2.73695 5.04718
thorax -1.20126 -1.46843 1.80559
lowerneck -10.9756 -4.24147 -7.93539
upperneck 25.5456 -3.92295 -4.06668
head 10.0702 -3.27952 -0.605869
rclavicle 9.10682e-015 1.59028e-015
rhumerus -23.7895 -23.8314 -66.0156
rradius 73.9057
rwrist -24.834
rhand -17.3713 -47.3308
rfingers 7.12502
rthumb 8.87709 -77.1241
lclavicle 9.10682e-015 1.59028e-015
lhumerus -22.0241 0.682405 95.4838
lradius 80.2755
lwrist 42.5112
lhand -12.9077 50.5834
lfingers 7.12502
lthumb 13.1822 80.1467
rfemur -18.1849 1.80422 30.863
rtibia 21.1776
rfoot -4.26179 -13.526
rtoes 17.6984
lfemur -12.4016 -0.901831 -6.42992
ltibia 60.5251
lfoot 10.1893 -2.06673
ltoes -11.8317
199
root 3.19314 17.898 5.93501 431.512 -81.0418 -427.368
lowerback -0.885742 -1.84377 6.04022
upperback -1.5787 -2.56948 4.99893
thorax -1.1614 -1.38267 1.7747
lowerneck -10.847 -4.36104 -8.00022
upperneck 25.4199 -4.13441 -3.88272
head 10.009 -3.35345 -0.54912
rclavicle 1.71824e-014 -3.97569e-014
rhumerus -24.2072 -23.6774 -66.3583
rradius 74.2287
rwrist -24.9479
rhand -17.6835 -47.3302
rfingers 7.12502
rthumb 8.57582 -77.1361
lclavicle 1.71824e-014 -3.97569e-014
lhumerus -22.5303 0.830347 95.3616
lradius 80.3356
lwrist 41.9132
lhand -12.7488 50.3696
lfingers 7.12502
lthumb 13.3354 79.9229
rfemur -17.3693 1.92146 31.0557
rtibia 20.6624
rfoot -4.65941 -13.5618
rtoes 17.9676
lfemur -13.7443 -0.419721 -6.30755
ltibia 61.7202
lfoot 9.05027 -1.74432
ltoes -12.3901
200
root 3.04155 17.9211 5.90607 431.959 -81.0627 -427.747
lowerback -0.939264 -1.71926 5.98349
upperback -1.56737 -2.40711 4.94364
thorax -1.11734 -1.29928 1.74554
lowerneck -10.6949 -4.47918 -8.06856
upperneck 25.3143 -4.34726 -3.69725
head 9.95156 -3.42988 -0.491438
rclavicle -6.64686e-015 1.98785e-014
rhumerus -24.5686 -23.5468 -66.7258
rradius 74.5179
rwrist -24.987
rhand -18.0023 -47.3614
rfingers 7.12502
rthumb 8.26808 -77.1796
lclavicle -6.64686e-015 1.98785e-014
lhumerus -23.051 0.987848 95.1938
lradius 80.4628
lwrist 41.3137
lhand -12.5081 50.0139
lfingers 7.12502
lthumb 13.5673 79.5519
rfemur -16.5542 2.04347 31.2303
rtibia 20.1007
rfoot -5.01168 -13.5906
rtoes 18.1732
lfemur -15.0875 0.0557666 -6.20979
ltibia 62.7376
lfoot 7.98957 -1.48485
ltoes -12.6806
